<?xml version="1.0" encoding="UTF-8" standalone="no"?>
<!-- Created with Inkscape (http://www.inkscape.org/) -->

<svg
   xmlns:dc="http://purl.org/dc/elements/1.1/"
   xmlns:cc="http://creativecommons.org/ns#"
   xmlns:rdf="http://www.w3.org/1999/02/22-rdf-syntax-ns#"
   xmlns:svg="http://www.w3.org/2000/svg"
   xmlns="http://www.w3.org/2000/svg"
   xmlns:sodipodi="http://sodipodi.sourceforge.net/DTD/sodipodi-0.dtd"
   xmlns:inkscape="http://www.inkscape.org/namespaces/inkscape"
   width="210mm"
   height="297mm"
   viewBox="0 0 744.09448819 1052.3622047"
   id="svg2"
   version="1.1"
   inkscape:version="0.91 r13725"
   sodipodi:docname="eloop.svg">
  <defs
     id="defs4" />
  <sodipodi:namedview
     id="base"
     pagecolor="#ffffff"
     bordercolor="#666666"
     borderopacity="1.0"
     inkscape:pageopacity="0.0"
     inkscape:pageshadow="2"
     inkscape:zoom="2.8"
     inkscape:cx="233.18361"
     inkscape:cy="903.92842"
     inkscape:document-units="px"
     inkscape:current-layer="layer1"
     showgrid="false"
     inkscape:window-width="1366"
     inkscape:window-height="704"
     inkscape:window-x="0"
     inkscape:window-y="27"
     inkscape:window-maximized="1" />
  <metadata
     id="metadata7">
    <rdf:RDF>
      <cc:Work
         rdf:about="">
        <dc:format>image/svg+xml</dc:format>
        <dc:type
           rdf:resource="http://purl.org/dc/dcmitype/StillImage" />
        <dc:title></dc:title>
      </cc:Work>
    </rdf:RDF>
  </metadata>
  <g
     inkscape:label="Ebene 1"
     inkscape:groupmode="layer"
     id="layer1">
    <path
       style="opacity:1;fill:#ffffff;fill-opacity:1;stroke:#ff0000;stroke-width:1.04807568;stroke-miterlimit:4;stroke-dasharray:none;stroke-opacity:1"
       d="M 239.40625 81.777344 A 22.223356 19.445436 0 0 0 217.18359 101.22266 A 22.223356 19.445436 0 0 0 217.19141 101.40234 C 176.3772 111.84481 146.20312 148.86469 146.20312 192.93359 C 146.20313 245.11122 188.50206 287.4082 240.67969 287.4082 C 292.85732 287.4082 335.1543 245.11122 335.1543 192.93359 C 335.1543 147.94995 303.71506 110.31338 261.61133 100.78906 A 22.223356 19.445436 0 0 0 239.40625 81.777344 z "
       id="path4283" />
    <path
       style="fill:#000000"
       d="m 279.50195,107.78516 c -0.0204,0.0184 -0.19121,3.22359 -0.38086,7.12109 -0.18966,3.8974 -0.36346,7.103 -0.38476,7.125 -0.0213,0.022 -1.53692,-0.66314 -3.36914,-1.52344 -6.30374,-2.9601 -10.47471,-4.42061 -16.70899,-5.84961 -13.12419,-3.0081 -27.15863,-2.66307 -39.94336,0.98242 -18.26478,5.2081 -33.87756,16.43987 -44.54101,32.04297 -2.33836,3.4215 -3.74236,5.82083 -5.68164,9.70703 -6.69861,13.42331 -9.47789,28.45031 -8.03907,43.47071 0.97702,10.1994 3.96939,20.2838 8.75977,29.52929 4.44781,8.5844 11.28411,17.34411 18.07617,23.15821 2.80642,2.4023 6.88922,5.52448 9.13672,6.98828 8.85422,5.7666 19.6722,10.10135 29.55469,11.84375 2.97536,0.5246 7.20588,1.07372 9.51367,1.23242 7.67626,0.5277 16.81835,-0.29445 24.3457,-2.18945 2.48202,-0.6249 6.88042,-1.95608 8.52539,-2.58008 11.61241,-4.4047 22.022,-11.16917 30.08008,-19.54687 2.49846,-2.5976 6.46935,-7.45187 8.64844,-10.57227 6.14077,-8.7931 10.87669,-20.3203 12.81445,-31.1875 0.91148,-5.11168 1.33483,-10.23395 1.2793,-15.32031 l -20.56641,0 c 0.0233,2.12651 -0.0373,4.28469 -0.19726,6.23828 -0.26905,3.2863 -0.51187,4.76205 -1.42578,8.68945 -1.85552,7.9738 -5.64206,15.94034 -10.75196,22.61524 -1.72882,2.2582 -5.60478,6.41683 -7.71093,8.27343 -7.20951,6.3552 -15.8866,10.96255 -24.94532,13.24805 -3.69647,0.9325 -4.51519,1.08966 -7.57226,1.44336 -12.32567,1.4257 -24.51336,-0.7429 -34.95313,-6.2207 -4.49545,-2.3587 -9.05481,-5.54787 -12.92187,-9.03907 -1.625,-1.467 -5.24079,-5.2459 -5.83399,-6.0957 -0.21923,-0.314 -0.76308,-1.01053 -1.20898,-1.54883 -1.63934,-1.9792 -4.64776,-6.77152 -6.12891,-9.76562 -2.68342,-5.4244 -4.19219,-9.97775 -5.46875,-16.49805 -1.03117,-5.2669 -1.13791,-13.6467 -0.24609,-19.25 2.57512,-16.1795 10.79478,-29.80184 23.8125,-39.46094 5.15832,-3.8275 10.30587,-6.52787 16.16602,-8.48047 4.19418,-1.3974 5.54922,-1.7262 11.24218,-2.72461 2.85069,-0.49999 11.27596,-0.58844 14.92578,-0.15624 6.93814,0.82159 13.01954,2.62731 20.03516,5.94921 l 1.59961,0.75782 -2.02149,1.66601 c -1.11135,0.9165 -3.49336,2.87898 -5.29492,4.35938 -1.80156,1.4804 -3.25832,2.70942 -3.23632,2.73242 0.0495,0.0514 42.05371,-3.36383 42.10351,-3.42383 0.0453,-0.0542 -21.03574,-37.78523 -21.08594,-37.74023 z m -38.3125,38.77539 c -0.19275,-0.005 -0.43457,-0.004 -0.74609,0.002 -2.11525,0.0371 -4.17369,0.81555 -7.35156,2.78125 -5.59939,3.4637 -9.05016,8.14671 -10,13.57031 -0.62462,3.5666 0.0266,6.43195 2.06054,9.06836 0.44262,0.57372 0.98492,1.12782 1.60984,1.65483 3.12958,2.63926 8.33127,4.59924 13.46243,4.94283 8.0003,0.53571 14.03456,-1.97406 16.24023,-6.75586 0.76717,-1.6632 0.97071,-2.52424 0.97071,-4.11524 0,-2.287 -0.74646,-4.30008 -2.17383,-5.86328 -2.05852,-2.2544 -3.99786,-2.87559 -10.80469,-3.46679 -2.90409,-0.2522 -4.59669,-0.94502 -5.21094,-2.13282 -0.62771,-1.2139 -0.15755,-3.03656 1.17774,-4.56836 0.74034,-0.8493 1.52362,-2.0022 1.80664,-2.6582 0.29668,-0.6877 0.24405,-1.6535 -0.11524,-2.0957 -0.21516,-0.2634 -0.34751,-0.3471 -0.92578,-0.36328 z m -20.65429,29.54101 c -0.10885,-0.004 -0.22568,0.003 -0.34961,0.0195 -2.12576,0.2852 -4.36141,3.75628 -5.08203,7.88868 -0.62096,3.5608 -0.003,7.12783 1.75,10.08593 0.8867,1.4964 3.25187,3.85227 5.06054,5.04297 4.278,2.8165 8.52824,4.13162 15.29297,4.72852 l 0,-0.006 c 0.40374,0.037 2.16645,0.036 3.91602,0 5.93913,-0.1236 10.38373,-1.05696 14.60547,-3.06836 4.44866,-2.1195 7.35836,-4.81889 8.98242,-8.33399 1.87092,-4.0493 1.77925,-9.6783 -0.21875,-13.5039 -0.6584,-1.2607 -1.23639,-1.81666 -2.1875,-2.10156 -0.92343,-0.2767 -1.32138,-0.0159 -2.41016,1.58203 -1.13098,1.6598 -3.65764,4.19384 -5.23242,5.24804 -2.48625,1.6643 -5.45206,2.85983 -8.48242,3.41993 -2.12603,0.3971 -7.40079,0.3948 -9.70703,0 -5.75654,-0.9857 -9.65795,-2.62235 -12.4336,-5.21875 -1.20356,-1.1258 -1.91573,-2.45599 -2.15625,-4.02149 -0.18371,-1.1956 -0.58571,-1.73468 -1.34765,-1.76172 z m 49.53711,19.30078 c -0.37926,0 -0.76347,0.0929 -0.85547,0.20508 -0.092,0.1121 -0.50326,1.04066 -0.91407,2.06446 -0.41077,1.0238 -1.03804,2.35046 -1.39257,2.94726 -3.38332,5.6949 -11.47144,9.05715 -18.36524,10.66992 -7.19076,1.68224 -16.10004,0.51674 -22.10547,-1.47656 -3.66675,-1.217 -7.72175,-3.57358 -9.82617,-5.70898 -1.44194,-1.4632 -1.79166,-1.95288 -2.74023,-3.83008 -0.88128,-1.744 -1.39039,-2.25977 -2.22657,-2.25977 -2.2622,0 -4.98454,3.89366 -5.75195,8.22656 -0.21812,1.2349 -0.21845,4.42694 0,5.80274 0.79283,4.9931 4.2231,10.13202 8.80859,13.19922 1.88965,1.264 2.81683,1.73137 5.29493,2.66797 4.34802,1.6435 9.39527,2.72044 15.82226,3.37304 2.23424,0.2269 9.93401,0.0806 12.15235,-0.23047 4.23755,-0.5942 7.80303,-1.51405 11.50195,-2.96875 6.47576,-2.5467 10.92214,-5.90849 13.87305,-10.48632 3.17902,-4.93169 3.74829,-11.9925 1.51179,-17.09879 -0.19002,-0.43383 -0.40029,-0.85356 -0.63093,-1.25668 -1.42535,-2.49121 -2.88387,-3.83985 -4.15625,-3.83985 z"
       id="path4281"
       inkscape:connector-curvature="0"
       sodipodi:nodetypes="cscccsssssscscccscsccsscsccccccssssccscccsccccccsssssssccscccccssccccssccsccccccscscccasscsscccsssssss" />
    <flowRoot
       xml:space="preserve"
       id="flowRoot4288"
       style="font-style:normal;font-variant:normal;font-weight:900;font-stretch:normal;font-size:40px;line-height:125%;font-family:Roboto;-inkscape-font-specification:'Roboto Heavy';text-align:start;letter-spacing:0px;word-spacing:0px;writing-mode:lr-tb;text-anchor:start;fill:#000000;fill-opacity:1;stroke:none;stroke-width:1px;stroke-linecap:butt;stroke-linejoin:miter;stroke-opacity:1"
       transform="translate(-36.607143,-22.714285)"><flowRegion
         id="flowRegion4290"><rect
           id="rect4292"
           width="138.89598"
           height="40.406101"
           x="238.90108"
           y="243.73509"
           style="font-style:normal;font-variant:normal;font-weight:900;font-stretch:normal;font-family:Roboto;-inkscape-font-specification:'Roboto Heavy'" /></flowRegion><flowPara
         id="flowPara4294">Speaker</flowPara></flowRoot>    <path
       style="opacity:1;fill:#ffffff;fill-opacity:1;stroke:#ff0000;stroke-width:1;stroke-miterlimit:4;stroke-dasharray:none;stroke-opacity:1"
       d="m 249.52799,98.505356 a 9.8489876,9.8489876 0 0 1 -9.84899,9.848984 9.8489876,9.8489876 0 0 1 -9.84899,-9.848984 9.8489876,9.8489876 0 0 1 9.84899,-9.848988 9.8489876,9.8489876 0 0 1 9.84899,9.848988 z"
       id="path4381" />
  </g>
</svg>
