<?xml version="1.0" encoding="UTF-8"?>

<svg version="1.2" baseProfile="tiny" width="50mm" height="50mm" viewBox="0 0 5000 5000" preserveAspectRatio="xMidYMid" fill-rule="evenodd" stroke-width="28.222" stroke-linejoin="round" xmlns="http://www.w3.org/2000/svg" xmlns:ooo="http://xml.openoffice.org/svg/export" xmlns:xlink="http://www.w3.org/1999/xlink" xml:space="preserve">
 <defs class="ClipPathGroup">
  <clipPath id="presentation_clip_path" clipPathUnits="userSpaceOnUse">
   <rect x="0" y="0" width="5000" height="5000"/>
  </clipPath>
 </defs>
 <defs class="TextShapeIndex">
  <g ooo:slide="id1" ooo:id-list="id3 id4"/>
 </defs>
 <defs class="EmbeddedBulletChars">
  <g id="bullet-char-template(57356)" transform="scale(0.00048828125,-0.00048828125)">
   <path d="M 580,1141 L 1163,571 580,0 -4,571 580,1141 Z"/>
  </g>
  <g id="bullet-char-template(57354)" transform="scale(0.00048828125,-0.00048828125)">
   <path d="M 8,1128 L 1137,1128 1137,0 8,0 8,1128 Z"/>
  </g>
  <g id="bullet-char-template(10146)" transform="scale(0.00048828125,-0.00048828125)">
   <path d="M 174,0 L 602,739 174,1481 1456,739 174,0 Z M 1358,739 L 309,1346 659,739 1358,739 Z"/>
  </g>
  <g id="bullet-char-template(10132)" transform="scale(0.00048828125,-0.00048828125)">
   <path d="M 2015,739 L 1276,0 717,0 1260,543 174,543 174,936 1260,936 717,1481 1274,1481 2015,739 Z"/>
  </g>
  <g id="bullet-char-template(10007)" transform="scale(0.00048828125,-0.00048828125)">
   <path d="M 0,-2 C -7,14 -16,27 -25,37 L 356,567 C 262,823 215,952 215,954 215,979 228,992 255,992 264,992 276,990 289,987 310,991 331,999 354,1012 L 381,999 492,748 772,1049 836,1024 860,1049 C 881,1039 901,1025 922,1006 886,937 835,863 770,784 769,783 710,716 594,584 L 774,223 C 774,196 753,168 711,139 L 727,119 C 717,90 699,76 672,76 641,76 570,178 457,381 L 164,-76 C 142,-110 111,-127 72,-127 30,-127 9,-110 8,-76 1,-67 -2,-52 -2,-32 -2,-23 -1,-13 0,-2 Z"/>
  </g>
  <g id="bullet-char-template(10004)" transform="scale(0.00048828125,-0.00048828125)">
   <path d="M 285,-33 C 182,-33 111,30 74,156 52,228 41,333 41,471 41,549 55,616 82,672 116,743 169,778 240,778 293,778 328,747 346,684 L 369,508 C 377,444 397,411 428,410 L 1163,1116 C 1174,1127 1196,1133 1229,1133 1271,1133 1292,1118 1292,1087 L 1292,965 C 1292,929 1282,901 1262,881 L 442,47 C 390,-6 338,-33 285,-33 Z"/>
  </g>
  <g id="bullet-char-template(9679)" transform="scale(0.00048828125,-0.00048828125)">
   <path d="M 813,0 C 632,0 489,54 383,161 276,268 223,411 223,592 223,773 276,916 383,1023 489,1130 632,1184 813,1184 992,1184 1136,1130 1245,1023 1353,916 1407,772 1407,592 1407,412 1353,268 1245,161 1136,54 992,0 813,0 Z"/>
  </g>
  <g id="bullet-char-template(8226)" transform="scale(0.00048828125,-0.00048828125)">
   <path d="M 346,457 C 273,457 209,483 155,535 101,586 74,649 74,723 74,796 101,859 155,911 209,963 273,989 346,989 419,989 480,963 531,910 582,859 608,796 608,723 608,648 583,586 532,535 482,483 420,457 346,457 Z"/>
  </g>
  <g id="bullet-char-template(8211)" transform="scale(0.00048828125,-0.00048828125)">
   <path d="M -4,459 L 1135,459 1135,606 -4,606 -4,459 Z"/>
  </g>
 </defs>
 <defs class="TextEmbeddedBitmaps"/>
 <g>
  <g id="id2" class="Master_Slide">
   <g id="bg-id2" class="Background"/>
   <g id="bo-id2" class="BackgroundObjects"/>
  </g>
 </g>
 <g class="SlideGroup">
  <g>
   <g id="id1" class="Slide" clip-path="url(#presentation_clip_path)">
    <g class="Page">
     <g class="com.sun.star.drawing.ClosedBezierShape">
      <g id="id3">
       <g>
        <defs>
         <linearGradient id="gradient1" x1="2158" y1="1182" x2="2794" y2="3555" gradientUnits="userSpaceOnUse">
          <stop offset="0" style="stop-color:rgb(255,102,255)"/>
          <stop offset="1" style="stop-color:rgb(102,204,255)"/>
         </linearGradient>
        </defs>
        <path style="fill:url(#gradient1)" d="M 2512,2201 L 2479,2200 2446,2198 2413,2195 2380,2190 2348,2183 2316,2175 2284,2165 2253,2154 2222,2142 2194,2129 2167,2115 2143,2100 2120,2084 2099,2067 2079,2049 2062,2030 2047,2010 2034,1989 2023,1968 2013,1946 2006,1924 2001,1901 1998,1878 1997,1855 1998,1824 2001,1794 2006,1765 2014,1735 2023,1706 2035,1678 2048,1649 2064,1621 2082,1593 2101,1567 2123,1542 2146,1518 2172,1494 2199,1472 2227,1450 2258,1429 2289,1410 2319,1393 2348,1379 2376,1367 2402,1358 2427,1352 2451,1348 2462,1347 2473,1347 2478,1347 2484,1348 2488,1348 2493,1349 2496,1351 2500,1352 2503,1354 2506,1356 2509,1359 2511,1361 2513,1364 2514,1368 2516,1371 2516,1375 2517,1379 2517,1384 2517,1389 2516,1394 2515,1399 2514,1404 2513,1409 2511,1414 2506,1426 2499,1437 2491,1450 2481,1463 2470,1477 2459,1490 2449,1502 2441,1514 2435,1526 2429,1537 2427,1542 2426,1548 2425,1553 2424,1557 2423,1562 2423,1566 2423,1575 2424,1583 2426,1591 2427,1595 2428,1598 2429,1602 2431,1605 2433,1608 2434,1611 2436,1614 2438,1616 2441,1619 2443,1621 2445,1624 2448,1626 2450,1629 2453,1631 2459,1635 2465,1639 2472,1642 2479,1645 2495,1651 2503,1654 2513,1656 2524,1658 2536,1660 2563,1663 2595,1666 2654,1671 2680,1674 2705,1678 2727,1682 2746,1687 2764,1692 2779,1698 2794,1705 2808,1713 2821,1722 2833,1732 2845,1742 2856,1753 2866,1765 2876,1778 2885,1792 2893,1807 2899,1822 2905,1838 2909,1854 2912,1871 2915,1889 2916,1907 2915,1927 2913,1946 2909,1965 2904,1984 2897,2003 2889,2021 2880,2039 2869,2057 2856,2073 2842,2089 2827,2104 2810,2117 2792,2130 2772,2142 2751,2153 2729,2164 2706,2173 2682,2180 2656,2187 2630,2192 2602,2196 2573,2199 2543,2200 2512,2201 Z M 1785,2306 L 1786,2280 1788,2255 1791,2230 1797,2206 1803,2183 1811,2159 1821,2137 1832,2114 1844,2094 1857,2076 1869,2061 1875,2055 1881,2049 1887,2044 1894,2039 1900,2036 1906,2033 1913,2030 1919,2028 1925,2027 1932,2027 1937,2027 1941,2028 1945,2029 1948,2030 1952,2031 1955,2033 1958,2035 1960,2038 1963,2041 1965,2044 1966,2047 1968,2051 1969,2055 1970,2059 1971,2064 1972,2069 1973,2078 1974,2087 1976,2096 1978,2104 1981,2113 1984,2121 1988,2130 1993,2138 1998,2146 2003,2154 2009,2162 2016,2170 2031,2185 2049,2199 2068,2214 2088,2227 2110,2241 2134,2253 2160,2264 2187,2275 2216,2285 2246,2294 2308,2309 2338,2314 2369,2319 2400,2323 2431,2326 2462,2327 2493,2328 2533,2327 2573,2324 2611,2319 2648,2311 2684,2302 2719,2290 2753,2277 2786,2261 2818,2243 2848,2222 2877,2201 2904,2177 2929,2152 2952,2125 2973,2097 2993,2067 2997,2062 3001,2057 3003,2055 3005,2053 3007,2051 3009,2050 3011,2049 3013,2047 3015,2046 3018,2045 3020,2045 3023,2044 3025,2044 3028,2044 3034,2044 3040,2045 3046,2047 3051,2049 3057,2051 3062,2055 3068,2058 3073,2063 3078,2068 3083,2073 3088,2079 3092,2086 3101,2101 3110,2119 3118,2138 3125,2158 3131,2178 3135,2199 3139,2221 3141,2244 3143,2267 3143,2291 3142,2318 3140,2345 3136,2370 3131,2395 3124,2419 3116,2443 3106,2466 3095,2488 3082,2509 3068,2529 3052,2549 3035,2568 3016,2586 2996,2604 2974,2621 2951,2637 2902,2667 2848,2693 2791,2715 2731,2732 2667,2746 2599,2756 2528,2762 2453,2764 2382,2762 2313,2757 2249,2747 2187,2734 2129,2717 2074,2695 2022,2670 1974,2640 1951,2624 1929,2608 1909,2591 1891,2573 1874,2555 1858,2536 1844,2516 1832,2496 1821,2474 1811,2452 1803,2430 1797,2407 1792,2383 1788,2358 1786,2332 1785,2306 Z M 3412,2749 L 3410,2794 3405,2839 3396,2882 3383,2924 3367,2965 3347,3004 3323,3042 3295,3078 3263,3113 3229,3147 3191,3178 3150,3207 3106,3235 3058,3260 3007,3283 2953,3305 2897,3325 2840,3342 2781,3357 2721,3369 2660,3378 2597,3385 2533,3389 2468,3390 2402,3388 2329,3383 2249,3373 2161,3360 2073,3341 1991,3319 1952,3306 1915,3293 1879,3278 1845,3263 1813,3245 1782,3226 1753,3204 1724,3181 1697,3155 1672,3128 1648,3099 1626,3068 1606,3036 1588,3003 1574,2970 1562,2936 1553,2902 1546,2867 1542,2832 1541,2797 1542,2769 1544,2741 1548,2714 1554,2688 1561,2662 1570,2638 1581,2614 1593,2590 1606,2569 1620,2551 1633,2535 1640,2528 1647,2523 1654,2517 1661,2513 1668,2509 1675,2506 1682,2503 1689,2501 1696,2500 1703,2500 1706,2500 1709,2501 1713,2502 1716,2503 1719,2504 1722,2506 1725,2508 1728,2511 1731,2514 1734,2517 1737,2521 1740,2524 1743,2529 1745,2533 1750,2543 1762,2569 1776,2595 1792,2619 1810,2642 1831,2664 1854,2686 1879,2706 1907,2725 1936,2743 1965,2760 1996,2775 2027,2790 2059,2803 2092,2815 2126,2825 2161,2834 2196,2842 2232,2849 2307,2860 2384,2867 2465,2869 2536,2867 2605,2863 2670,2855 2732,2845 2791,2831 2848,2813 2901,2793 2951,2769 2997,2743 3038,2713 3076,2682 3110,2647 3125,2629 3140,2610 3153,2591 3165,2571 3177,2550 3187,2528 3205,2483 3205,2481 3206,2479 3207,2475 3209,2471 3211,2466 3216,2457 3220,2448 3221,2446 3222,2444 3223,2442 3225,2440 3226,2439 3228,2437 3229,2436 3231,2435 3233,2434 3235,2433 3237,2433 3240,2432 3242,2432 3245,2431 3250,2431 3256,2431 3261,2432 3267,2434 3273,2437 3280,2440 3286,2444 3292,2448 3299,2454 3305,2460 3312,2467 3326,2483 3340,2502 3354,2525 3368,2549 3380,2574 3390,2600 3398,2628 3404,2656 3409,2686 3411,2717 3412,2749 Z"/>
       </g>
      </g>
     </g>
     <g class="com.sun.star.drawing.PolyPolygonShape">
      <g id="id4">
       <g>
        <defs>
         <linearGradient id="gradient2" x1="1775" y1="-176" x2="3163" y2="5003" gradientUnits="userSpaceOnUse">
          <stop offset="0" style="stop-color:rgb(255,102,255)"/>
          <stop offset="1" style="stop-color:rgb(102,204,255)"/>
         </linearGradient>
        </defs>
        <path style="fill:url(#gradient2)" d="M 3221,1075 L 3187,1059 3150,1041 3116,1025 3079,1009 3044,995 3007,980 2968,969 2931,955 2893,945 2856,934 2818,926 2779,918 2741,912 2703,904 2662,899 2624,895 2586,893 2545,889 2505,887 2468,889 2427,889 2387,890 2350,892 2310,894 2271,899 2231,906 2194,909 2155,919 2116,926 2080,936 2040,945 2004,956 1966,969 1929,983 1890,995 1854,1009 1819,1026 1783,1042 1748,1059 1714,1078 1679,1096 1646,1115 1612,1137 1579,1158 1548,1182 1516,1206 1484,1230 1454,1253 1424,1279 1394,1305 1365,1331 1338,1359 1311,1387 1284,1416 1258,1446 1234,1477 1207,1507 1186,1540 1162,1570 1141,1602 1119,1635 1098,1671 1080,1702 1061,1737 1043,1775 1026,1809 1010,1843 994,1880 981,1917 968,1953 955,1990 944,2029 933,2065 922,2104 914,2143 906,2181 898,2220 892,2258 887,2299 884,2336 880,2375 878,2415 877,2455 877,2493 879,2532 881,2572 883,2610 888,2650 892,2689 897,2729 903,2766 912,2804 919,2844 928,2881 941,2920 950,2956 962,2995 976,3030 990,3069 1004,3105 1022,3141 1038,3176 1055,3212 1073,3245 1092,3281 1114,3314 1135,3345 1157,3378 1177,3411 1201,3443 1227,3473 1251,3505 1277,3535 1303,3563 1331,3592 1357,3619 1388,3645 1416,3672 1446,3699 1477,3723 1507,3746 1537,3771 1570,3793 1602,3814 1638,3835 1669,3856 1705,3875 1739,3893 1775,3912 1809,3928 1846,3944 1883,3960 1920,3973 1955,3986 1992,3997 2032,4010 2068,4018 2106,4029 2144,4038 2184,4045 2221,4051 2262,4056 2300,4062 2339,4066 2378,4068 2417,4069 2457,4071 2497,4069 2534,4067 2575,4068 2614,4063 2653,4059 2691,4054 2731,4050 2770,4043 2806,4034 2845,4024 2885,4015 2921,4006 2960,3994 2995,3980 3034,3967 3070,3953 3106,3937 3141,3920 3178,3904 3210,3887 3246,3869 3281,3846 3314,3828 3347,3807 3380,3785 3412,3761 3442,3737 3474,3715 3503,3688 3534,3662 3563,3636 3590,3608 3617,3579 3644,3552 3670,3521 3697,3493 3721,3463 3744,3430 3769,3400 3791,3367 3812,3334 3833,3299 3852,3267 3870,3232 3889,3198 3905,3161 3923,3126 3939,3089 3953,3055 3966,3018 3978,2979 3992,2942 4003,2904 4011,2868 4022,2829 4030,2790 4036,2752 4044,2714 4049,2673 4053,2634 4055,2597 4059,2556 4061,2516 4059,2479 4059,2438 4058,2401 4055,2361 4051,2322 4049,2281 4042,2242 4038,2205 4029,2166 4022,2130 4012,2090 4003,2051 3991,2015 3979,1976 3965,1940 3953,1901 3939,1865 3922,1830 3906,1794 3889,1761 3870,1725 3851,1690 4324,1420 4349,1467 4374,1512 4398,1560 4418,1607 4442,1658 4459,1706 4478,1756 4496,1804 4512,1855 4525,1906 4541,1957 4552,2008 4563,2059 4574,2111 4582,2163 4588,2214 4594,2267 4598,2321 4601,2374 4605,2426 4606,2478 4604,2532 4603,2584 4599,2635 4595,2688 4588,2741 4582,2792 4573,2845 4564,2897 4552,2948 4541,3000 4526,3052 4512,3101 4497,3150 4478,3200 4462,3250 4442,3299 4419,3347 4398,3395 4376,3443 4351,3491 4326,3536 4298,3582 4272,3628 4241,3671 4211,3714 4181,3756 4148,3797 4116,3838 4082,3880 4046,3920 4012,3959 3976,3995 3936,4032 3898,4066 3857,4101 3819,4136 3777,4168 3733,4201 3692,4231 3647,4260 3603,4289 3558,4316 3513,4344 3467,4367 3419,4392 3372,4416 3324,4435 3276,4456 3226,4477 3177,4496 3127,4511 3076,4527 3025,4543 2974,4554 2923,4567 2871,4578 2820,4587 2768,4595 2715,4601 2664,4607 2609,4610 2557,4614 2507,4615 2452,4616 2402,4615 2346,4613 2296,4609 2243,4603 2191,4596 2137,4590 2087,4581 2036,4571 1984,4559 1930,4545 1880,4534 1831,4517 1779,4500 1730,4484 1680,4464 1633,4445 1585,4422 1537,4400 1489,4379 1444,4354 1395,4326 1352,4301 1307,4272 1263,4244 1219,4211 1178,4181 1136,4148 1095,4115 1056,4082 1015,4047 978,4009 941,3973 904,3934 870,3895 835,3854 800,3813 768,3771 738,3730 708,3688 678,3644 651,3599 622,3555 597,3508 571,3461 549,3413 526,3365 505,3318 485,3270 466,3222 448,3172 432,3120 416,3070 403,3019 390,2967 379,2916 368,2865 359,2814 351,2761 345,2709 342,2657 336,2603 335,2550 334,2497 332,2445 334,2393 337,2339 342,2288 346,2235 352,2182 361,2131 370,2079 379,2028 394,1977 406,1925 420,1873 436,1824 453,1774 470,1725 490,1675 509,1628 531,1580 556,1532 577,1484 602,1439 630,1393 657,1347 684,1303 715,1261 745,1217 778,1173 811,1134 843,1093 879,1054 913,1014 951,978 987,939 1028,904 1066,869 1105,834 1146,802 1188,769 1231,737 1276,707 1317,680 1362,652 1410,624 1456,599 1501,573 1549,550 1596,530 1644,507 1695,489 1742,470 1793,452 1842,437 1895,422 1943,407 1997,396 2046,385 2098,374 2152,366 2204,360 2256,354 2308,350 2363,346 2412,343 2465,342 2521,343 2570,345 2624,349 2677,353 2730,360 2781,366 2834,375 2886,384 2938,396 2989,407 3038,420 3090,436 3139,450 3189,467 3239,486 3288,506 3336,528 3384,550 3432,572 3480,596 3498,211 4060,1217 2937,1308 3221,1075 Z"/>
       </g>
      </g>
     </g>
    </g>
   </g>
  </g>
 </g>
</svg>